# xmcd
#
# Track frame offsets:
#	150
#	13612
#	25025
#	39625
#	55360
#	71460
#	93532
#	105335
#	120117
#	138045
#	152970
#	163887
#	179907
#	193505
#	220115
#	232492
#	249107
#	263677
#	282575
#
# Disc length: 3965 seconds
#
# Revision: 6
# Processed by: cddbd v1.5.2PL0 Copyright (c) Steve Scherf et al.
# Submitted via: audiograbber 1.83.01
#
DISCID=0b0f7b13
DTITLE=Taj Mahal - In Progress and In Motion 1965-1998 [CD 2)
DYEAR=1998
DGENRE=Blues
TTITLE0=Oh, Susanna
TTITLE1=Cakewalk Into Town
TTITLE2=Fishin' Blues
TTITLE3=Nobody's Business But My Own
TTITLE4=Sweet Mama Janisse
TTITLE5=Little Red Hen Blues
TTITLE6=Mary Don't You Weep
TTITLE7=Sweet Home Chicago
TTITLE8=Frankie and Albert
TTITLE9=M'Banjo
TTITLE10=Statesboro Blues
TTITLE11=Bye and Bye
TTITLE12=Six Days On The Road
TTITLE13=We Gonna Rock
TTITLE14=Ain't It Funky Now
TTITLE15=Tom and Sally Drake
TTITLE16=Fishin' Blues
TTITLE17=Blues With A Feeling
TTITLE18=Freight Train
EXTD=
EXTT0=
EXTT1=
EXTT2=
EXTT3=
EXTT4=
EXTT5=
EXTT6=
EXTT7=
EXTT8=
EXTT9=
EXTT10=
EXTT11=
EXTT12=
EXTT13=
EXTT14=
EXTT15=
EXTT16=
EXTT17=
EXTT18=
PLAYORDER=
